<?xml version="1.0" standalone="no"?>
<!DOCTYPE svg PUBLIC "-//W3C//DTD SVG 20010904//EN"
 "http://www.w3.org/TR/2001/REC-SVG-20010904/DTD/svg10.dtd">
<svg version="1.0" xmlns="http://www.w3.org/2000/svg"
 width="47.000000pt" height="44.000000pt" viewBox="0 0 47.000000 44.000000"
 preserveAspectRatio="xMidYMid meet">

<g transform="translate(0.000000,44.000000) scale(0.100000,-0.100000)"
fill="#000000" stroke="none">
<path d="M95 285 c-34 -33 -34 -93 -1 -124 26 -24 48 -29 84 -17 21 7 23 5 20
-15 -5 -35 -51 -48 -89 -27 -34 20 -47 8 -19 -17 22 -20 77 -22 109 -5 32 16
41 50 41 146 0 66 -3 84 -14 84 -8 0 -16 -5 -18 -11 -3 -9 -9 -9 -25 0 -34 17
-62 13 -88 -14z m86 -15 c14 -8 19 -21 19 -51 0 -32 -4 -41 -25 -51 -54 -24
-100 48 -58 94 18 20 36 23 64 8z"/>
<path d="M315 298 c-32 -17 -45 -39 -45 -78 0 -88 130 -115 160 -34 16 42 12
64 -19 95 -31 30 -62 36 -96 17z m60 -24 c41 -16 36 -96 -7 -110 -29 -9 -68
22 -68 53 0 46 35 72 75 57z"/>
</g>
</svg>
